<mxfile host="app.diagrams.net" modified="2020-11-10T05:24:29.512Z" agent="5.0 (X11; Linux x86_64) AppleWebKit/537.36 (KHTML, like Gecko) Chrome/84.0.4147.135 Safari/537.36" etag="bItMSDMSuJ6Ha4hnjU7P" version="13.9.2" type="github">
  <diagram id="JeULcchd7E0I5C79hs8H" name="Page-1">
    <mxGraphModel dx="791" dy="392" grid="1" gridSize="10" guides="1" tooltips="1" connect="1" arrows="1" fold="1" page="1" pageScale="1" pageWidth="1169" pageHeight="1654" math="0" shadow="0">
      <root>
        <mxCell id="0" />
        <mxCell id="1" parent="0" />
        <mxCell id="wwLtkvYDBhIcgLj_sCR3-1" value="&lt;font style=&quot;font-size: 18px&quot;&gt;&lt;b&gt;Jane&lt;br&gt;&lt;/b&gt;Age: 26&lt;/font&gt;" style="html=1;" vertex="1" parent="1">
          <mxGeometry x="420" y="140" width="110" height="50" as="geometry" />
        </mxCell>
        <mxCell id="wwLtkvYDBhIcgLj_sCR3-2" value="&lt;font style=&quot;font-size: 18px&quot;&gt;&lt;b&gt;Fifi&lt;br&gt;&lt;/b&gt;Age: 26&lt;/font&gt;" style="html=1;" vertex="1" parent="1">
          <mxGeometry x="540" y="140" width="110" height="50" as="geometry" />
        </mxCell>
        <mxCell id="wwLtkvYDBhIcgLj_sCR3-3" value="&lt;font style=&quot;font-size: 18px&quot;&gt;&lt;b&gt;Chris&lt;br&gt;&lt;/b&gt;Age: 18&lt;br&gt;&lt;/font&gt;" style="html=1;" vertex="1" parent="1">
          <mxGeometry x="180" y="140" width="110" height="50" as="geometry" />
        </mxCell>
        <mxCell id="wwLtkvYDBhIcgLj_sCR3-4" value="&lt;font style=&quot;font-size: 18px&quot;&gt;&lt;b&gt;Sam&lt;br&gt;&lt;/b&gt;Age: 13&lt;br&gt;&lt;/font&gt;" style="html=1;" vertex="1" parent="1">
          <mxGeometry x="300" y="140" width="110" height="50" as="geometry" />
        </mxCell>
        <mxCell id="wwLtkvYDBhIcgLj_sCR3-5" value="&lt;font style=&quot;font-size: 18px&quot;&gt;&lt;b&gt;Imogen&lt;br&gt;&lt;/b&gt;Age: 42&lt;br&gt;&lt;/font&gt;" style="html=1;" vertex="1" parent="1">
          <mxGeometry x="660" y="140" width="110" height="50" as="geometry" />
        </mxCell>
        <mxCell id="wwLtkvYDBhIcgLj_sCR3-6" value="&lt;font style=&quot;font-size: 18px&quot;&gt;&lt;b&gt;Jane&lt;br&gt;&lt;/b&gt;Age: 26&lt;/font&gt;" style="html=1;" vertex="1" parent="1">
          <mxGeometry x="540" y="200" width="110" height="50" as="geometry" />
        </mxCell>
        <mxCell id="wwLtkvYDBhIcgLj_sCR3-7" value="&lt;font style=&quot;font-size: 18px&quot;&gt;&lt;b&gt;Fifi&lt;br&gt;&lt;/b&gt;Age: 26&lt;/font&gt;" style="html=1;" vertex="1" parent="1">
          <mxGeometry x="420" y="200" width="110" height="50" as="geometry" />
        </mxCell>
        <mxCell id="wwLtkvYDBhIcgLj_sCR3-8" value="&lt;font style=&quot;font-size: 18px&quot;&gt;&lt;b&gt;Chris&lt;br&gt;&lt;/b&gt;Age: 18&lt;br&gt;&lt;/font&gt;" style="html=1;" vertex="1" parent="1">
          <mxGeometry x="300" y="200" width="110" height="50" as="geometry" />
        </mxCell>
        <mxCell id="wwLtkvYDBhIcgLj_sCR3-9" value="&lt;font style=&quot;font-size: 18px&quot;&gt;&lt;b&gt;Sam&lt;br&gt;&lt;/b&gt;Age: 13&lt;br&gt;&lt;/font&gt;" style="html=1;" vertex="1" parent="1">
          <mxGeometry x="180" y="200" width="110" height="50" as="geometry" />
        </mxCell>
        <mxCell id="wwLtkvYDBhIcgLj_sCR3-10" value="&lt;font style=&quot;font-size: 18px&quot;&gt;&lt;b&gt;Imogen&lt;br&gt;&lt;/b&gt;Age: 42&lt;br&gt;&lt;/font&gt;" style="html=1;" vertex="1" parent="1">
          <mxGeometry x="660" y="200" width="110" height="50" as="geometry" />
        </mxCell>
        <mxCell id="wwLtkvYDBhIcgLj_sCR3-12" value="&lt;font style=&quot;font-size: 18px&quot;&gt;&lt;b&gt;Greg&lt;br&gt;&lt;/b&gt;Age: 67&lt;br&gt;&lt;/font&gt;" style="html=1;" vertex="1" parent="1">
          <mxGeometry x="780" y="140" width="110" height="50" as="geometry" />
        </mxCell>
        <mxCell id="wwLtkvYDBhIcgLj_sCR3-13" value="&lt;font style=&quot;font-size: 18px&quot;&gt;&lt;b&gt;Greg&lt;br&gt;&lt;/b&gt;Age: 67&lt;br&gt;&lt;/font&gt;" style="html=1;" vertex="1" parent="1">
          <mxGeometry x="780" y="200" width="110" height="50" as="geometry" />
        </mxCell>
        <mxCell id="wwLtkvYDBhIcgLj_sCR3-14" value="&lt;b&gt;Scenario 1&lt;/b&gt;" style="text;html=1;strokeColor=none;fillColor=none;align=center;verticalAlign=middle;whiteSpace=wrap;rounded=0;" vertex="1" parent="1">
          <mxGeometry x="180" y="110" width="90" height="20" as="geometry" />
        </mxCell>
        <mxCell id="wwLtkvYDBhIcgLj_sCR3-15" value="&lt;b&gt;Scenario 2&lt;/b&gt;" style="text;html=1;strokeColor=none;fillColor=none;align=center;verticalAlign=middle;whiteSpace=wrap;rounded=0;" vertex="1" parent="1">
          <mxGeometry x="180" y="290" width="90" height="20" as="geometry" />
        </mxCell>
        <mxCell id="wwLtkvYDBhIcgLj_sCR3-17" value="&lt;font style=&quot;font-size: 18px&quot;&gt;&lt;b&gt;Sharon&lt;br&gt;&lt;/b&gt;Age: 31&lt;/font&gt;" style="html=1;" vertex="1" parent="1">
          <mxGeometry x="180" y="320" width="110" height="50" as="geometry" />
        </mxCell>
        <mxCell id="wwLtkvYDBhIcgLj_sCR3-18" value="&lt;font style=&quot;font-size: 18px&quot;&gt;&lt;b&gt;Fifi&lt;br&gt;&lt;/b&gt;Age: 26&lt;/font&gt;" style="html=1;" vertex="1" parent="1">
          <mxGeometry x="540" y="320" width="110" height="50" as="geometry" />
        </mxCell>
        <mxCell id="wwLtkvYDBhIcgLj_sCR3-19" value="&lt;font style=&quot;font-size: 18px&quot;&gt;&lt;b&gt;Chris&lt;br&gt;&lt;/b&gt;Age: 18&lt;br&gt;&lt;/font&gt;" style="html=1;" vertex="1" parent="1">
          <mxGeometry x="300" y="320" width="110" height="50" as="geometry" />
        </mxCell>
        <mxCell id="wwLtkvYDBhIcgLj_sCR3-20" value="&lt;font style=&quot;font-size: 18px&quot;&gt;&lt;b&gt;Sam&lt;br&gt;&lt;/b&gt;Age: 13&lt;br&gt;&lt;/font&gt;" style="html=1;" vertex="1" parent="1">
          <mxGeometry x="780" y="320" width="110" height="50" as="geometry" />
        </mxCell>
        <mxCell id="wwLtkvYDBhIcgLj_sCR3-21" value="&lt;font style=&quot;font-size: 18px&quot;&gt;&lt;b&gt;Imogen&lt;br&gt;&lt;/b&gt;Age: 42&lt;br&gt;&lt;/font&gt;" style="html=1;" vertex="1" parent="1">
          <mxGeometry x="660" y="320" width="110" height="50" as="geometry" />
        </mxCell>
        <mxCell id="wwLtkvYDBhIcgLj_sCR3-22" value="&lt;font style=&quot;font-size: 18px&quot;&gt;&lt;b&gt;Sharon&lt;br&gt;&lt;/b&gt;Age: 31&lt;/font&gt;" style="html=1;" vertex="1" parent="1">
          <mxGeometry x="540" y="380" width="110" height="50" as="geometry" />
        </mxCell>
        <mxCell id="wwLtkvYDBhIcgLj_sCR3-23" value="&lt;font style=&quot;font-size: 18px&quot;&gt;&lt;b&gt;Fifi&lt;br&gt;&lt;/b&gt;Age: 26&lt;/font&gt;" style="html=1;" vertex="1" parent="1">
          <mxGeometry x="420" y="380" width="110" height="50" as="geometry" />
        </mxCell>
        <mxCell id="wwLtkvYDBhIcgLj_sCR3-24" value="&lt;font style=&quot;font-size: 18px&quot;&gt;&lt;b&gt;Chris&lt;br&gt;&lt;/b&gt;Age: 18&lt;br&gt;&lt;/font&gt;" style="html=1;" vertex="1" parent="1">
          <mxGeometry x="300" y="380" width="110" height="50" as="geometry" />
        </mxCell>
        <mxCell id="wwLtkvYDBhIcgLj_sCR3-25" value="&lt;font style=&quot;font-size: 18px&quot;&gt;&lt;b&gt;Sam&lt;br&gt;&lt;/b&gt;Age: 13&lt;br&gt;&lt;/font&gt;" style="html=1;" vertex="1" parent="1">
          <mxGeometry x="180" y="380" width="110" height="50" as="geometry" />
        </mxCell>
        <mxCell id="wwLtkvYDBhIcgLj_sCR3-26" value="&lt;font style=&quot;font-size: 18px&quot;&gt;&lt;b&gt;Imogen&lt;br&gt;&lt;/b&gt;Age: 42&lt;br&gt;&lt;/font&gt;" style="html=1;" vertex="1" parent="1">
          <mxGeometry x="660" y="380" width="110" height="50" as="geometry" />
        </mxCell>
        <mxCell id="wwLtkvYDBhIcgLj_sCR3-27" value="&lt;font style=&quot;font-size: 18px&quot;&gt;&lt;b&gt;Greg&lt;br&gt;&lt;/b&gt;Age: 67&lt;br&gt;&lt;/font&gt;" style="html=1;" vertex="1" parent="1">
          <mxGeometry x="420" y="320" width="110" height="50" as="geometry" />
        </mxCell>
        <mxCell id="wwLtkvYDBhIcgLj_sCR3-28" value="&lt;font style=&quot;font-size: 18px&quot;&gt;&lt;b&gt;Greg&lt;br&gt;&lt;/b&gt;Age: 67&lt;br&gt;&lt;/font&gt;" style="html=1;" vertex="1" parent="1">
          <mxGeometry x="780" y="380" width="110" height="50" as="geometry" />
        </mxCell>
        <mxCell id="wwLtkvYDBhIcgLj_sCR3-29" value="&lt;b&gt;Runtime: 2.4 seconds&lt;/b&gt;" style="text;html=1;strokeColor=none;fillColor=none;align=center;verticalAlign=middle;whiteSpace=wrap;rounded=0;" vertex="1" parent="1">
          <mxGeometry x="430" y="110" width="160" height="20" as="geometry" />
        </mxCell>
        <mxCell id="wwLtkvYDBhIcgLj_sCR3-30" value="&lt;b&gt;Runtime: 6.9 seconds&lt;/b&gt;" style="text;html=1;strokeColor=none;fillColor=none;align=center;verticalAlign=middle;whiteSpace=wrap;rounded=0;" vertex="1" parent="1">
          <mxGeometry x="430" y="290" width="160" height="20" as="geometry" />
        </mxCell>
        <mxCell id="wwLtkvYDBhIcgLj_sCR3-31" value="Input" style="text;html=1;align=center;verticalAlign=middle;resizable=0;points=[];autosize=1;" vertex="1" parent="1">
          <mxGeometry x="130" y="155" width="40" height="20" as="geometry" />
        </mxCell>
        <mxCell id="wwLtkvYDBhIcgLj_sCR3-32" value="Output" style="text;html=1;align=center;verticalAlign=middle;resizable=0;points=[];autosize=1;" vertex="1" parent="1">
          <mxGeometry x="125" y="215" width="50" height="20" as="geometry" />
        </mxCell>
        <mxCell id="wwLtkvYDBhIcgLj_sCR3-33" value="Output" style="text;html=1;align=center;verticalAlign=middle;resizable=0;points=[];autosize=1;" vertex="1" parent="1">
          <mxGeometry x="125" y="395" width="50" height="20" as="geometry" />
        </mxCell>
        <mxCell id="wwLtkvYDBhIcgLj_sCR3-34" value="Input" style="text;html=1;align=center;verticalAlign=middle;resizable=0;points=[];autosize=1;" vertex="1" parent="1">
          <mxGeometry x="130" y="335" width="40" height="20" as="geometry" />
        </mxCell>
      </root>
    </mxGraphModel>
  </diagram>
</mxfile>
